<mxfile host="app.diagrams.net" modified="2022-09-21T08:22:35.287Z" agent="5.0 (Windows NT 10.0; Win64; x64) AppleWebKit/537.36 (KHTML, like Gecko) Chrome/105.0.0.0 Safari/537.36" etag="5NsOoFfMm1K0Kme-bcn8" version="20.3.3" type="github">
  <diagram id="z8q4jO40HNslmoXTA87F" name="第 1 页">
    <mxGraphModel dx="1422" dy="804" grid="1" gridSize="10" guides="1" tooltips="1" connect="1" arrows="1" fold="1" page="1" pageScale="1" pageWidth="827" pageHeight="1169" math="0" shadow="0">
      <root>
        <mxCell id="0" />
        <mxCell id="1" parent="0" />
        <mxCell id="RbRwlfw5CgV5smtXkvxu-11" style="edgeStyle=orthogonalEdgeStyle;rounded=0;orthogonalLoop=1;jettySize=auto;html=1;" edge="1" parent="1" source="RbRwlfw5CgV5smtXkvxu-4" target="RbRwlfw5CgV5smtXkvxu-8">
          <mxGeometry relative="1" as="geometry" />
        </mxCell>
        <mxCell id="RbRwlfw5CgV5smtXkvxu-4" value="交易所" style="sketch=0;aspect=fixed;html=1;points=[];align=center;image;fontSize=12;image=img/lib/mscae/Exchange_On_premises_Access.svg;" vertex="1" parent="1">
          <mxGeometry x="220" y="168.62" width="29" height="50" as="geometry" />
        </mxCell>
        <mxCell id="RbRwlfw5CgV5smtXkvxu-12" style="edgeStyle=orthogonalEdgeStyle;rounded=0;orthogonalLoop=1;jettySize=auto;html=1;" edge="1" parent="1" source="RbRwlfw5CgV5smtXkvxu-5" target="RbRwlfw5CgV5smtXkvxu-9">
          <mxGeometry relative="1" as="geometry" />
        </mxCell>
        <mxCell id="RbRwlfw5CgV5smtXkvxu-5" value="数据提供商" style="points=[];aspect=fixed;html=1;align=center;shadow=0;dashed=0;image;image=img/lib/allied_telesis/buildings/Medium_Business_Building.svg;" vertex="1" parent="1">
          <mxGeometry x="340" y="168.62" width="38.89" height="50" as="geometry" />
        </mxCell>
        <mxCell id="RbRwlfw5CgV5smtXkvxu-13" style="edgeStyle=orthogonalEdgeStyle;rounded=0;orthogonalLoop=1;jettySize=auto;html=1;entryX=0.75;entryY=0;entryDx=0;entryDy=0;entryPerimeter=0;" edge="1" parent="1" source="RbRwlfw5CgV5smtXkvxu-7" target="RbRwlfw5CgV5smtXkvxu-9">
          <mxGeometry relative="1" as="geometry" />
        </mxCell>
        <mxCell id="RbRwlfw5CgV5smtXkvxu-7" value="网站" style="aspect=fixed;perimeter=ellipsePerimeter;html=1;align=center;shadow=0;dashed=0;spacingTop=3;image;image=img/lib/active_directory/web_server.svg;" vertex="1" parent="1">
          <mxGeometry x="460" y="168.62" width="40" height="50" as="geometry" />
        </mxCell>
        <mxCell id="RbRwlfw5CgV5smtXkvxu-17" style="edgeStyle=orthogonalEdgeStyle;rounded=0;orthogonalLoop=1;jettySize=auto;html=1;entryX=0.51;entryY=-0.024;entryDx=0;entryDy=0;entryPerimeter=0;" edge="1" parent="1" source="RbRwlfw5CgV5smtXkvxu-8" target="RbRwlfw5CgV5smtXkvxu-16">
          <mxGeometry relative="1" as="geometry" />
        </mxCell>
        <mxCell id="RbRwlfw5CgV5smtXkvxu-8" value="数据订阅器" style="html=1;outlineConnect=0;whiteSpace=wrap;fillColor=#99ffff;shape=mxgraph.archimate3.application;appType=proc;archiType=rounded;" vertex="1" parent="1">
          <mxGeometry x="174.5" y="300" width="120" height="50" as="geometry" />
        </mxCell>
        <mxCell id="RbRwlfw5CgV5smtXkvxu-23" style="edgeStyle=orthogonalEdgeStyle;rounded=0;orthogonalLoop=1;jettySize=auto;html=1;exitX=0.5;exitY=1;exitDx=0;exitDy=0;exitPerimeter=0;" edge="1" parent="1" source="RbRwlfw5CgV5smtXkvxu-9">
          <mxGeometry relative="1" as="geometry">
            <mxPoint x="414" y="410" as="targetPoint" />
          </mxGeometry>
        </mxCell>
        <mxCell id="RbRwlfw5CgV5smtXkvxu-9" value="数据清洗程序" style="html=1;outlineConnect=0;whiteSpace=wrap;fillColor=#99ffff;shape=mxgraph.archimate3.application;appType=proc;archiType=rounded;" vertex="1" parent="1">
          <mxGeometry x="354" y="300" width="120" height="50" as="geometry" />
        </mxCell>
        <mxCell id="RbRwlfw5CgV5smtXkvxu-16" value="" style="sketch=0;aspect=fixed;html=1;points=[];align=center;image;fontSize=12;image=img/lib/mscae/Cache_Redis_Product.svg;" vertex="1" parent="1">
          <mxGeometry x="209.5" y="430" width="50" height="42" as="geometry" />
        </mxCell>
        <mxCell id="RbRwlfw5CgV5smtXkvxu-18" value="SSDB" style="shape=datastore;whiteSpace=wrap;html=1;" vertex="1" parent="1">
          <mxGeometry x="400" y="412" width="60" height="60" as="geometry" />
        </mxCell>
        <mxCell id="RbRwlfw5CgV5smtXkvxu-19" value="" style="sketch=0;outlineConnect=0;fontColor=#232F3E;gradientColor=none;fillColor=#2E27AD;strokeColor=none;dashed=0;verticalLabelPosition=bottom;verticalAlign=top;align=center;html=1;fontSize=12;fontStyle=0;aspect=fixed;pointerEvents=1;shape=mxgraph.aws4.rds_mysql_instance;" vertex="1" parent="1">
          <mxGeometry x="500" y="412" width="60" height="60" as="geometry" />
        </mxCell>
        <mxCell id="RbRwlfw5CgV5smtXkvxu-20" value="" style="shadow=0;dashed=0;html=1;strokeColor=none;fillColor=#4495D1;labelPosition=center;verticalLabelPosition=bottom;verticalAlign=top;align=center;outlineConnect=0;shape=mxgraph.veeam.local_disk;" vertex="1" parent="1">
          <mxGeometry x="310" y="415.2" width="57.2" height="56.8" as="geometry" />
        </mxCell>
        <mxCell id="RbRwlfw5CgV5smtXkvxu-21" value="" style="endArrow=classic;html=1;rounded=0;" edge="1" parent="1" target="RbRwlfw5CgV5smtXkvxu-20">
          <mxGeometry width="50" height="50" relative="1" as="geometry">
            <mxPoint x="240" y="350" as="sourcePoint" />
            <mxPoint x="320" y="340" as="targetPoint" />
          </mxGeometry>
        </mxCell>
        <mxCell id="RbRwlfw5CgV5smtXkvxu-24" value="" style="endArrow=classic;html=1;rounded=0;exitX=0.633;exitY=1;exitDx=0;exitDy=0;exitPerimeter=0;" edge="1" parent="1" source="RbRwlfw5CgV5smtXkvxu-9" target="RbRwlfw5CgV5smtXkvxu-19">
          <mxGeometry width="50" height="50" relative="1" as="geometry">
            <mxPoint x="490" y="400" as="sourcePoint" />
            <mxPoint x="540" y="350" as="targetPoint" />
          </mxGeometry>
        </mxCell>
        <mxCell id="RbRwlfw5CgV5smtXkvxu-25" value="" style="endArrow=classic;html=1;rounded=0;" edge="1" parent="1" target="RbRwlfw5CgV5smtXkvxu-20">
          <mxGeometry width="50" height="50" relative="1" as="geometry">
            <mxPoint x="390" y="350" as="sourcePoint" />
            <mxPoint x="340" y="400" as="targetPoint" />
          </mxGeometry>
        </mxCell>
        <mxCell id="RbRwlfw5CgV5smtXkvxu-26" value="" style="endArrow=classic;html=1;rounded=0;entryX=0.25;entryY=0;entryDx=0;entryDy=0;entryPerimeter=0;" edge="1" parent="1" target="RbRwlfw5CgV5smtXkvxu-9">
          <mxGeometry width="50" height="50" relative="1" as="geometry">
            <mxPoint x="250" y="210" as="sourcePoint" />
            <mxPoint x="290" y="300" as="targetPoint" />
          </mxGeometry>
        </mxCell>
      </root>
    </mxGraphModel>
  </diagram>
</mxfile>
